<?xml version="1.0" standalone="no"?>
<!DOCTYPE svg PUBLIC "-//W3C//DTD SVG 20010904//EN"
 "http://www.w3.org/TR/2001/REC-SVG-20010904/DTD/svg10.dtd">
<svg version="1.0" xmlns="http://www.w3.org/2000/svg"
 width="500.000000pt" height="500.000000pt" viewBox="0 0 500.000000 500.000000"
 preserveAspectRatio="xMidYMid meet">

<g transform="translate(0.000000,500.000000) scale(0.100000,-0.100000)"
fill="#000000" stroke="none">
<path d="M1667 1764 c-13 -14 -8 -329 6 -348 19 -26 81 -19 85 10 2 15 -3 23
-17 27 -19 5 -21 14 -23 158 -3 146 -4 154 -23 157 -12 2 -24 0 -28 -4z"/>
<path d="M2550 1705 c0 -65 -1 -66 -22 -58 -48 17 -90 8 -120 -25 -24 -28 -28
-40 -28 -93 0 -91 26 -128 90 -129 20 0 45 7 57 15 19 13 22 13 27 0 3 -8 17
-15 31 -15 l25 0 -2 183 -3 182 -27 3 -28 3 0 -66z m-9 -126 c13 -26 3 -87
-18 -111 -19 -21 -54 -23 -71 -6 -15 15 -16 92 -2 119 15 27 75 26 91 -2z"/>
<path d="M1391 1743 c-56 -29 -75 -64 -79 -144 -8 -134 40 -199 146 -199 82 0
142 41 142 97 0 18 -6 23 -25 23 -14 0 -25 -5 -25 -10 0 -6 -11 -22 -25 -35
-34 -35 -93 -34 -125 0 -32 34 -40 136 -16 184 31 59 108 65 148 10 40 -53 86
-28 53 29 -24 39 -49 53 -109 58 -37 4 -60 0 -85 -13z"/>
<path d="M1863 1644 c-76 -38 -83 -178 -12 -228 26 -18 110 -22 140 -6 29 16
49 64 49 117 0 62 -17 94 -60 115 -43 22 -75 22 -117 2z m107 -63 c15 -30 12
-92 -7 -113 -39 -43 -103 -8 -103 57 0 46 25 75 65 75 24 0 38 -6 45 -19z"/>
<path d="M2111 1646 c-9 -11 -12 -44 -9 -110 4 -114 17 -136 83 -136 26 0 48
6 56 16 11 14 13 14 21 0 5 -9 20 -16 33 -16 l25 0 0 119 c0 123 -9 151 -45
137 -11 -4 -15 -23 -15 -78 0 -83 -15 -122 -49 -126 -37 -6 -46 13 -51 111 -4
73 -8 92 -21 95 -9 1 -21 -4 -28 -12z"/>
<path d="M2823 1644 c-56 -28 -78 -108 -49 -178 20 -47 51 -66 112 -66 41 0
57 5 78 25 15 14 26 33 24 43 -5 25 -41 26 -63 2 -41 -45 -105 -12 -105 55 0
69 59 97 114 54 25 -19 29 -20 43 -7 21 22 2 55 -42 74 -44 18 -72 17 -112 -2z"/>
<path d="M3094 1646 c-46 -20 -64 -52 -64 -114 0 -58 19 -106 49 -122 30 -16
114 -12 140 6 13 9 29 32 37 50 51 121 -48 230 -162 180z m100 -68 c36 -50 9
-128 -44 -128 -16 0 -36 7 -44 16 -18 18 -21 85 -6 115 15 28 74 26 94 -3z"/>
<path d="M3334 1647 c-2 -7 -3 -65 -2 -128 l3 -114 25 0 c24 0 25 2 30 85 3
47 9 91 13 98 12 18 64 15 71 -4 3 -9 6 -54 6 -100 0 -82 1 -84 24 -84 31 0
36 16 36 105 0 79 11 99 52 93 21 -3 23 -8 26 -78 3 -106 8 -120 37 -120 25 0
25 0 25 103 0 118 -11 142 -65 153 -25 4 -44 1 -68 -13 -33 -20 -34 -20 -56
-2 -28 23 -50 24 -78 4 -18 -13 -22 -13 -33 0 -15 19 -39 19 -46 2z"/>
<path d="M2667 1453 c-4 -3 -7 -17 -7 -30 0 -18 5 -23 25 -23 14 0 28 7 31 15
11 27 -30 58 -49 38z"/>
</g>
</svg>
